<mxfile host="65bd71144e">
    <diagram id="1O3aUWalT62gRnQ6Irv8" name="Page-1">
        <mxGraphModel dx="734" dy="583" grid="1" gridSize="10" guides="1" tooltips="1" connect="1" arrows="1" fold="1" page="1" pageScale="1" pageWidth="850" pageHeight="1100" math="0" shadow="0">
            <root>
                <mxCell id="0"/>
                <mxCell id="1" parent="0"/>
                <mxCell id="6" value="" style="group" vertex="1" connectable="0" parent="1">
                    <mxGeometry x="80" y="100" width="130" height="210" as="geometry"/>
                </mxCell>
                <mxCell id="2" value="&lt;div&gt;&lt;span&gt;Subject&lt;/span&gt;&lt;/div&gt;" style="whiteSpace=wrap;html=1;align=center;" vertex="1" parent="6">
                    <mxGeometry y="40" width="130" height="50" as="geometry"/>
                </mxCell>
                <mxCell id="3" value="interface" style="whiteSpace=wrap;html=1;" vertex="1" parent="6">
                    <mxGeometry width="130" height="40" as="geometry"/>
                </mxCell>
                <mxCell id="4" value="registerObserver()&lt;br&gt;removeObserver()&lt;br&gt;notifyObservers()" style="whiteSpace=wrap;html=1;" vertex="1" parent="6">
                    <mxGeometry y="90" width="130" height="120" as="geometry"/>
                </mxCell>
                <mxCell id="7" style="edgeStyle=none;html=1;exitX=1;exitY=1;exitDx=0;exitDy=0;entryX=0;entryY=0.75;entryDx=0;entryDy=0;" edge="1" parent="1" source="2" target="9">
                    <mxGeometry relative="1" as="geometry">
                        <mxPoint x="460" y="190" as="targetPoint"/>
                    </mxGeometry>
                </mxCell>
                <mxCell id="11" value="" style="group" vertex="1" connectable="0" parent="1">
                    <mxGeometry x="490" y="110" width="120" height="210" as="geometry"/>
                </mxCell>
                <mxCell id="8" value="interface" style="whiteSpace=wrap;html=1;" vertex="1" parent="11">
                    <mxGeometry width="120" height="40" as="geometry"/>
                </mxCell>
                <mxCell id="9" value="Observer&lt;br&gt;" style="whiteSpace=wrap;html=1;" vertex="1" parent="11">
                    <mxGeometry y="40" width="120" height="60" as="geometry"/>
                </mxCell>
                <mxCell id="10" value="update()" style="whiteSpace=wrap;html=1;" vertex="1" parent="11">
                    <mxGeometry y="100" width="120" height="110" as="geometry"/>
                </mxCell>
                <mxCell id="15" value="" style="group" vertex="1" connectable="0" parent="1">
                    <mxGeometry x="480" y="420" width="120" height="240" as="geometry"/>
                </mxCell>
                <mxCell id="12" value="Concrete Observer" style="whiteSpace=wrap;html=1;" vertex="1" parent="15">
                    <mxGeometry width="120" height="53.33333333333333" as="geometry"/>
                </mxCell>
                <mxCell id="13" value="update()" style="whiteSpace=wrap;html=1;" vertex="1" parent="15">
                    <mxGeometry y="53.33333333333333" width="120" height="80" as="geometry"/>
                </mxCell>
                <mxCell id="14" value="&lt;br&gt;methods&lt;br&gt;&lt;br&gt;Cada observador registra com um sujeito concreto pra receber atualizacoes" style="whiteSpace=wrap;html=1;" vertex="1" parent="15">
                    <mxGeometry y="133.33333333333331" width="120" height="106.66666666666666" as="geometry"/>
                </mxCell>
                <mxCell id="18" value="" style="group" vertex="1" connectable="0" parent="1">
                    <mxGeometry x="85" y="460" width="120" height="160" as="geometry"/>
                </mxCell>
                <mxCell id="16" value="Concrete Subject" style="whiteSpace=wrap;html=1;" vertex="1" parent="18">
                    <mxGeometry width="120" height="40" as="geometry"/>
                </mxCell>
                <mxCell id="17" value="registerObserver()&lt;br&gt;removeObserver()&lt;br&gt;notifyObserver&lt;br&gt;&lt;br&gt;getState()&lt;br&gt;setState()" style="whiteSpace=wrap;html=1;" vertex="1" parent="18">
                    <mxGeometry y="40" width="120" height="120" as="geometry"/>
                </mxCell>
                <mxCell id="19" style="edgeStyle=none;html=1;exitX=0;exitY=0;exitDx=0;exitDy=0;entryX=0.992;entryY=0.417;entryDx=0;entryDy=0;entryPerimeter=0;" edge="1" parent="1" source="14" target="17">
                    <mxGeometry relative="1" as="geometry"/>
                </mxCell>
                <mxCell id="21" style="edgeStyle=none;html=1;exitX=0.5;exitY=0;exitDx=0;exitDy=0;entryX=0.417;entryY=1;entryDx=0;entryDy=0;entryPerimeter=0;dashed=1;" edge="1" parent="1" source="12" target="10">
                    <mxGeometry relative="1" as="geometry"/>
                </mxCell>
                <mxCell id="22" style="edgeStyle=none;html=1;exitX=0.5;exitY=0;exitDx=0;exitDy=0;entryX=0.5;entryY=1;entryDx=0;entryDy=0;dashed=1;" edge="1" parent="1" source="16" target="4">
                    <mxGeometry relative="1" as="geometry"/>
                </mxCell>
                <mxCell id="23" value="Observadores" style="text;html=1;align=center;verticalAlign=middle;resizable=0;points=[];autosize=1;strokeColor=none;fillColor=none;" vertex="1" parent="1">
                    <mxGeometry x="295" y="150" width="90" height="20" as="geometry"/>
                </mxCell>
                <mxCell id="24" value="Sujeito" style="text;html=1;align=center;verticalAlign=middle;resizable=0;points=[];autosize=1;strokeColor=none;fillColor=none;" vertex="1" parent="1">
                    <mxGeometry x="315" y="480" width="50" height="20" as="geometry"/>
                </mxCell>
            </root>
        </mxGraphModel>
    </diagram>
</mxfile>